<svg width="30" height="30" viewBox="0 0 30 30" fill="none" xmlns="http://www.w3.org/2000/svg">
<path d="M26.5535 15.5464C26.7519 15.4361 26.875 15.227 26.875 15C26.875 14.773 26.7519 14.5639 26.5535 14.4537L23.7006 12.8687C18.0799 9.74611 12.1549 7.2061 6.01776 5.28825L5.18642 5.02846C4.99665 4.96915 4.78998 5.00368 4.62979 5.12145C4.4696 5.23922 4.375 5.42618 4.375 5.625V12.8125C4.375 13.1449 4.6352 13.4192 4.96715 13.4366L6.2292 13.5031C9.30622 13.665 12.3644 14.0824 15.3723 14.7508L15.6702 14.817C15.7365 14.8317 15.7652 14.8588 15.7812 14.8803C15.8013 14.9074 15.8171 14.9492 15.8171 15C15.8171 15.0508 15.8013 15.0926 15.7812 15.1197C15.7652 15.1412 15.7365 15.1683 15.6702 15.183L15.3724 15.2492C12.3645 15.9177 9.3062 16.335 6.22917 16.4969L4.96715 16.5634C4.6352 16.5808 4.375 16.8551 4.375 17.1875V24.375C4.375 24.5738 4.4696 24.7608 4.62979 24.8786C4.78998 24.9963 4.99665 25.0309 5.18642 24.9716L6.01778 24.7118C12.1549 22.7939 18.0799 20.2539 23.7006 17.1313L26.5535 15.5464Z" fill="white"/>
</svg>
