<svg width="157" height="34" viewBox="0 0 157 34" fill="none" xmlns="http://www.w3.org/2000/svg">
<path d="M124.668 20.7702C123.405 19.4684 122.773 17.6225 122.773 15.252C122.773 13.4256 123.208 11.8129 124.056 10.4334C124.925 9.05386 126.129 7.9852 127.669 7.22743C129.208 6.46966 131.004 6.08105 133.037 6.08105C134.597 6.08105 135.998 6.25593 137.202 6.60567C138.406 6.95541 139.512 7.46059 140.499 8.10178V21.2754C140.499 21.6445 140.42 21.8971 140.281 22.0331C140.143 22.1692 139.847 22.2274 139.433 22.2274H136.807C136.571 22.2274 136.373 22.1886 136.255 22.0914C136.136 22.0137 136.038 21.8583 135.978 21.664L135.623 20.5176C134.952 21.2754 134.163 21.8388 133.195 22.1886C132.248 22.5383 131.103 22.7132 129.741 22.7132C127.629 22.7132 125.932 22.072 124.668 20.7702ZM134.301 18.186C135.011 17.6419 135.386 16.9036 135.386 15.971V10.2585C134.715 9.92821 133.926 9.77277 132.998 9.77277C131.537 9.77277 130.373 10.2391 129.504 11.1912C128.636 12.1432 128.202 13.4645 128.202 15.1549C128.202 16.4567 128.498 17.4282 129.09 18.05C129.682 18.6717 130.59 19.0021 131.774 19.0021C132.741 19.0021 133.59 18.73 134.301 18.186Z" fill="#021519"/>
<path d="M24.733 22.5001C23.2526 21.8783 22.0881 20.9457 21.2393 19.7022C20.3905 18.4586 19.9563 16.9042 19.9563 15.0584C19.9563 12.1827 20.7656 9.98712 22.3644 8.491C23.9829 6.99489 26.2726 6.23711 29.2729 6.23711C32.2139 6.23711 34.4443 6.97546 35.9642 8.43271C37.4841 9.88997 38.2341 11.969 38.2341 14.6698C38.2341 15.6218 37.7999 16.0882 36.9314 16.0882H25.2857C25.2857 17.2928 25.7397 18.2449 26.6674 18.9055C27.5951 19.5661 28.8584 19.8965 30.4769 19.8965C31.4441 19.8965 32.2731 19.7993 32.9837 19.605C33.6943 19.4107 34.3851 19.1387 35.0365 18.7695C35.2734 18.6529 35.4313 18.5946 35.5102 18.5946C35.6681 18.5946 35.826 18.7112 35.9642 18.9638L36.9511 20.7902C37.0498 20.9457 37.0893 21.0817 37.0893 21.1983C37.0893 21.3731 36.9709 21.5674 36.7143 21.7423C35.8063 22.3252 34.7799 22.7527 33.6351 23.0247C32.4902 23.2967 31.1875 23.4327 29.6874 23.4327C27.8714 23.4327 26.2134 23.1218 24.733 22.5001ZM33.1811 13.1736C33.1811 12.0467 32.8653 11.1724 32.2139 10.5506C31.5823 9.92883 30.5953 9.59852 29.2926 9.59852C27.9899 9.59852 27.0029 9.9094 26.3121 10.5506C25.6212 11.1918 25.2857 12.0661 25.2857 13.1542H33.1811V13.1736Z" fill="#021519"/>
<path d="M40.6414 22.5781C40.4046 22.3449 40.2861 21.9758 40.2861 21.49V7.73352C40.2861 7.34492 40.3453 7.09233 40.4835 6.95632C40.6217 6.82031 40.898 6.76202 41.3125 6.76202H44.0562C44.3325 6.76202 44.5299 6.80088 44.6681 6.89803C44.8062 6.99518 44.8852 7.15062 44.9049 7.36435L45.0036 8.54958C45.7142 7.83067 46.6024 7.2672 47.6683 6.85917C48.7342 6.45114 49.958 6.25684 51.3397 6.25684C53.2148 6.25684 54.715 6.76202 55.8401 7.75295C56.9652 8.76332 57.5376 10.24 57.5376 12.2219V21.49C57.5376 21.9758 57.4191 22.3449 57.1823 22.5781C56.9454 22.8113 56.5506 22.9278 55.998 22.9278H53.432C52.8595 22.9278 52.4648 22.8113 52.2082 22.5781C51.9713 22.3449 51.8529 21.9758 51.8529 21.49V12.5522C51.8529 11.6778 51.6555 11.0561 51.2805 10.6675C50.8857 10.2789 50.2541 10.0846 49.3658 10.0846C48.3987 10.0846 47.5894 10.3372 46.938 10.8423C46.2669 11.3475 45.9511 12.0081 45.9511 12.8242V21.49C45.9511 21.9758 45.8326 22.3449 45.6155 22.5781C45.3787 22.8113 44.9839 22.9278 44.4115 22.9278H41.8455C41.2928 22.9278 40.8783 22.8113 40.6414 22.5781Z" fill="#021519"/>
<path d="M59.3926 14.7669C59.3926 13.0764 59.7084 11.5998 60.3598 10.2979C61.0111 8.99612 61.9586 8.00519 63.2218 7.30571C64.4851 6.60622 65.9655 6.23705 67.7025 6.23705C68.6894 6.23705 69.5776 6.35363 70.3474 6.56736C71.137 6.78109 71.7686 7.09198 72.2423 7.50001V1.47669C72.2423 0.952073 72.3608 0.582901 72.5779 0.34974C72.8147 0.11658 73.2095 0 73.7819 0H76.2492C76.8019 0 77.1967 0.116581 77.4335 0.369172C77.6704 0.621763 77.7888 0.990933 77.7888 1.47669V21.1399C76.8611 21.82 75.6373 22.364 74.1175 22.7915C72.6174 23.2189 71.0185 23.4327 69.3605 23.4327C62.7284 23.4327 59.3926 20.5376 59.3926 14.7669ZM72.2818 19.022V12.8433C72.2818 11.9301 71.9857 11.2306 71.3936 10.7643C70.8014 10.2979 69.9921 10.0648 69.0052 10.0648C67.663 10.0648 66.6563 10.4922 66.005 11.3277C65.3536 12.1632 65.0378 13.329 65.0378 14.8251C65.0378 16.535 65.4128 17.7591 66.1629 18.478C66.9129 19.2163 68.038 19.5661 69.5579 19.5661C70.6632 19.5855 71.5712 19.3912 72.2818 19.022Z" fill="#021519"/>
<path d="M146.696 20.7517C145.65 19.6636 145.136 18.1675 145.136 16.2439V10.0263H143.518C142.985 10.0263 142.63 9.92914 142.452 9.73484C142.274 9.54054 142.195 9.1908 142.195 8.68562V7.61697C142.195 7.11178 142.274 6.76204 142.452 6.54831C142.63 6.33458 142.985 6.23743 143.518 6.23743H145.136V4.93562C145.136 4.44987 145.235 3.98354 145.452 3.51722C145.669 3.0509 145.965 2.468 146.36 1.76852C146.538 1.45763 146.696 1.26333 146.854 1.16618C147.012 1.06903 147.288 1.01074 147.683 1.01074H149.202C149.716 1.01074 150.071 1.12732 150.288 1.34105C150.505 1.55479 150.604 1.90453 150.604 2.39028V6.23743H153.881C154.413 6.23743 154.769 6.33458 154.946 6.54831C155.124 6.76204 155.203 7.11178 155.203 7.61697V8.68562C155.203 9.1908 155.124 9.54054 154.946 9.73484C154.769 9.92914 154.413 10.0263 153.881 10.0263H150.604V16.1273C150.604 16.9823 150.762 17.5846 151.058 17.9538C151.374 18.3229 151.887 18.5172 152.617 18.5172C153.051 18.5172 153.427 18.4589 153.723 18.3618C154.019 18.2452 154.354 18.0703 154.729 17.8372C154.907 17.7206 155.045 17.6817 155.124 17.6817C155.321 17.6817 155.479 17.7983 155.617 18.0315L156.841 20.0911C156.96 20.2659 156.999 20.402 156.999 20.5185C156.999 20.674 156.861 20.8294 156.604 21.0043C155.223 21.9369 153.427 22.4032 151.236 22.4032C149.262 22.3838 147.722 21.8398 146.696 20.7517Z" fill="#021519"/>
<path d="M0.355293 29.3783C0.118431 29.1452 0 28.776 0 28.2902V8.52986C0.967186 7.86924 2.19097 7.3252 3.6911 6.89774C5.19122 6.45085 6.73082 6.23711 8.29016 6.23711C15.0407 6.23711 18.4357 9.11276 18.4357 14.8641C18.4357 17.4871 17.7054 19.5856 16.2645 21.1205C14.8039 22.6555 12.7708 23.4327 10.1851 23.4327C9.21787 23.4327 8.34938 23.3161 7.55984 23.0636C6.7703 22.811 6.09919 22.4418 5.54651 21.956V28.2902C5.54651 28.776 5.42808 29.1452 5.21096 29.3783C4.9741 29.6115 4.57933 29.7281 4.00691 29.7281H1.5396C0.986925 29.7281 0.592155 29.6115 0.355293 29.3783ZM11.8431 18.342C12.4945 17.4871 12.8103 16.3019 12.8103 14.7669C12.8103 13.0765 12.4155 11.8718 11.6457 11.1529C10.8759 10.434 9.6916 10.0648 8.11252 10.0648C7.00716 10.0648 6.13867 10.2203 5.50704 10.5312V16.5351C5.50704 17.5066 5.82285 18.2449 6.45448 18.7889C7.08611 19.333 7.89539 19.605 8.90206 19.605C10.2048 19.6244 11.1917 19.197 11.8431 18.342Z" fill="#021519"/>
<path d="M80.0598 14.5532C80.0598 17.2151 81.106 19.7216 83.0206 21.6063C84.9352 23.491 87.4618 24.5208 90.1462 24.5208C91.4489 24.5208 92.7319 24.2682 93.9557 23.7825L94.686 23.491C94.7452 23.4716 94.8045 23.4522 94.8637 23.4522C95.0018 23.4522 95.1203 23.5105 95.219 23.6076L100.252 29.3006L100.233 13.8537V13.8149C100.055 11.4055 99.0088 9.15163 97.2915 7.44179C95.3966 5.55707 92.8504 4.52728 90.1659 4.52728C87.6789 4.52728 85.4089 5.3822 83.5535 6.97547C83.3759 7.13091 83.1982 7.30578 83.0206 7.46122C81.106 9.36537 80.0598 11.8718 80.0598 14.5532ZM83.968 14.5532C83.968 13.5817 84.1852 12.6685 84.5997 11.8136C84.8957 11.2112 85.2905 10.6672 85.784 10.1814C85.8827 10.0843 86.0011 9.9677 86.1195 9.87055C87.2446 8.89904 88.6461 8.37443 90.1462 8.37443C91.7845 8.37443 93.3438 9.01562 94.5084 10.162C95.5545 11.2112 96.2059 12.5908 96.3046 14.048V20.0908C95.3374 19.5856 94.1728 19.5273 93.1464 19.9353L92.4753 20.2073C90.1659 21.14 87.5604 20.6154 85.784 18.8667C84.6194 17.7397 83.968 16.1853 83.968 14.5532Z" fill="#0EC45D"/>
<path d="M118.273 7.96623C118.115 7.81079 117.957 7.65535 117.78 7.51934C116.082 6.06208 113.99 5.28488 111.72 5.28488C109.253 5.28488 106.943 6.23695 105.206 7.9468C103.627 9.5012 102.68 11.5802 102.522 13.7758V13.8147L102.502 33.4002L107.555 22.6165L108.266 22.9079C109.371 23.3548 110.556 23.588 111.76 23.588C114.227 23.588 116.536 22.6359 118.273 20.9067C120.03 19.1774 120.977 16.8846 120.997 14.4364C120.977 12.0077 120.03 9.6955 118.273 7.96623ZM115.549 18.2447C114.01 19.7603 111.7 20.2266 109.687 19.4105L109.095 19.1774C108.187 18.8082 107.18 18.8665 106.331 19.3134V14.0284C106.43 12.746 106.983 11.5414 107.911 10.6281C108.937 9.61778 110.299 9.05431 111.74 9.05431C113.062 9.05431 114.286 9.5012 115.273 10.3561C115.372 10.4338 115.47 10.531 115.569 10.6281C116.003 11.0556 116.339 11.5219 116.595 12.0465C116.971 12.7849 117.148 13.6009 117.148 14.4364C117.148 15.8743 116.595 17.2344 115.549 18.2447Z" fill="#E14F87"/>
</svg>
